<svg xmlns="http://www.w3.org/2000/svg" xmlns:xlink="http://www.w3.org/1999/xlink" width="500" zoomAndPan="magnify" viewBox="0 0 375 374.999991" height="500" preserveAspectRatio="xMidYMid meet" version="1.0"><defs><g/></defs><g fill="#000000" fill-opacity="1"><g transform="translate(69.046917, 225.109826)"><g><path d="M 20.984375 -46.90625 C 14.867188 -38.90625 11.8125 -30.265625 11.8125 -20.984375 C 11.8125 -9.929688 16.453125 -1.347656 25.734375 4.765625 C 31.148438 8.398438 37.296875 10.21875 44.171875 10.21875 C 51.046875 10.21875 57.007812 8.867188 62.0625 6.171875 C 71.582031 1.234375 76.929688 -7.050781 78.109375 -18.6875 C 78.222656 -19.507812 78.28125 -20.332031 78.28125 -21.15625 C 78.28125 -25.507812 77.070312 -30.210938 74.65625 -35.265625 C 72.25 -40.316406 68.34375 -44.957031 62.9375 -49.1875 L 31.203125 -74.234375 C 24.273438 -79.640625 20.8125 -86.628906 20.8125 -95.203125 C 20.8125 -103.785156 23.570312 -111.046875 29.09375 -116.984375 C 34.613281 -122.921875 42.078125 -125.890625 51.484375 -125.890625 C 56.179688 -125.890625 61.296875 -125.300781 66.828125 -124.125 L 73.875 -124.125 L 74.234375 -102.4375 L 72.46875 -102.4375 C 72.34375 -108.082031 70.3125 -112.519531 66.375 -115.75 C 62.4375 -118.976562 57.5 -120.59375 51.5625 -120.59375 C 45.632812 -120.59375 40.671875 -118.625 36.671875 -114.6875 C 32.671875 -110.75 30.671875 -105.691406 30.671875 -99.515625 C 30.671875 -93.347656 33.257812 -88.207031 38.4375 -84.09375 L 71.046875 -58.359375 C 83.984375 -48.128906 90.453125 -35.785156 90.453125 -21.328125 C 90.453125 -10.515625 86.160156 -1.226562 77.578125 6.53125 C 70.171875 13.226562 60.296875 16.578125 47.953125 16.578125 C 40.429688 16.578125 33.734375 15.164062 27.859375 12.34375 C 16.804688 7.164062 10.164062 -1.648438 7.9375 -14.109375 C 7.582031 -15.984375 7.40625 -18.359375 7.40625 -21.234375 C 7.40625 -24.117188 8.226562 -28.054688 9.875 -33.046875 C 11.519531 -38.046875 14.691406 -43.078125 19.390625 -48.140625 Z M 20.984375 -46.90625 "/></g></g></g><g fill="#000000" fill-opacity="1"><g transform="translate(147.475264, 225.109826)"><g><path d="M 48.84375 -82.34375 C 48.375 -83.863281 48.140625 -85.179688 48.140625 -86.296875 C 48.140625 -87.421875 48.195312 -88.6875 48.3125 -90.09375 C 48.425781 -91.507812 48.6875 -93.445312 49.09375 -95.90625 C 49.507812 -98.375 50.304688 -100.8125 51.484375 -103.21875 C 52.660156 -105.632812 54.007812 -107.957031 55.53125 -110.1875 C 57.0625 -112.425781 59.03125 -114.484375 61.4375 -116.359375 C 63.851562 -118.242188 66.53125 -119.890625 69.46875 -121.296875 C 75.695312 -124.359375 83.28125 -125.890625 92.21875 -125.890625 C 110.195312 -125.890625 124.859375 -119.921875 136.203125 -107.984375 C 147.546875 -96.054688 153.21875 -80.804688 153.21875 -62.234375 C 153.21875 -43.660156 146.515625 -28.234375 133.109375 -15.953125 C 119.710938 -3.671875 102.726562 2.46875 82.15625 2.46875 C 61.59375 2.46875 44.519531 -3.640625 30.9375 -15.859375 C 17.363281 -28.085938 10.578125 -43.957031 10.578125 -63.46875 C 10.578125 -76.050781 13.515625 -87.21875 19.390625 -96.96875 C 25.265625 -106.726562 33.671875 -114.367188 44.609375 -119.890625 L 45.671875 -118.3125 C 38.023438 -113.25 32.523438 -105.957031 29.171875 -96.4375 C 25.828125 -86.914062 24.15625 -76.804688 24.15625 -66.109375 C 24.15625 -46.253906 29.5625 -30.742188 40.375 -19.578125 C 51.1875 -8.410156 65.054688 -2.828125 81.984375 -2.828125 C 98.910156 -2.828125 112.75 -8.4375 123.5 -19.65625 C 134.257812 -30.882812 139.640625 -45.664062 139.640625 -64 C 139.640625 -79.863281 135.378906 -93.257812 126.859375 -104.1875 C 118.335938 -115.125 106.316406 -120.59375 90.796875 -120.59375 C 83.867188 -120.59375 77.582031 -119.359375 71.9375 -116.890625 C 61.707031 -112.546875 54.945312 -105.378906 51.65625 -95.390625 C 50.71875 -92.453125 50.25 -89.921875 50.25 -87.796875 C 50.25 -85.679688 50.367188 -83.976562 50.609375 -82.6875 Z M 48.84375 -82.34375 "/></g></g></g><g fill="#000000" fill-opacity="1"><g transform="translate(187.187996, 271.532366)"><g><path d="M -14.5625 24.890625 C -11.238281 25.992188 -7.945312 26.546875 -4.6875 26.546875 C -1.4375 26.546875 1.96875 25.867188 5.53125 24.515625 C 9.09375 23.160156 12.347656 21.039062 15.296875 18.15625 C 18.242188 15.269531 20.671875 10.9375 22.578125 5.15625 C 24.484375 -0.613281 25.4375 -7.429688 25.4375 -15.296875 L 25.4375 -115.578125 C 25.3125 -118.765625 24.113281 -121.492188 21.84375 -123.765625 C 19.570312 -126.046875 16.835938 -127.1875 13.640625 -127.1875 L 11.25 -127.1875 L 11.25 -129.03125 L 51.609375 -129.03125 L 51.609375 -127.1875 L 49.21875 -127.1875 C 46.019531 -127.1875 43.285156 -126.078125 41.015625 -123.859375 C 38.742188 -121.648438 37.546875 -118.890625 37.421875 -115.578125 L 37.421875 -14.75 C 37.421875 -6.394531 36.128906 0.914062 33.546875 7.1875 C 30.972656 13.457031 27.71875 18.1875 23.78125 21.375 C 16.40625 27.15625 8.234375 30.046875 -0.734375 30.046875 C -6.015625 30.046875 -10.867188 29 -15.296875 26.90625 Z M -14.5625 24.890625 "/></g></g></g><path fill="#ffffff" d="M 51.34375 161.148438 L 320.558594 161.148438 L 320.558594 204.742188 L 51.34375 204.742188 L 51.34375 161.148438 " fill-opacity="1" fill-rule="nonzero"/><g fill="#000000" fill-opacity="1"><g transform="translate(61.3025, 192.02653)"><g><path d="M 0.984375 0 L 0.984375 -1.078125 L 1.3125 -1.078125 C 1.601562 -1.078125 1.875 -1.097656 2.125 -1.140625 C 2.382812 -1.179688 2.613281 -1.269531 2.8125 -1.40625 C 3.007812 -1.539062 3.160156 -1.726562 3.265625 -1.96875 C 3.378906 -2.207031 3.4375 -2.53125 3.4375 -2.9375 L 3.4375 -15.5 C 3.4375 -15.90625 3.378906 -16.226562 3.265625 -16.46875 C 3.160156 -16.71875 3.007812 -16.90625 2.8125 -17.03125 C 2.613281 -17.164062 2.382812 -17.253906 2.125 -17.296875 C 1.875 -17.335938 1.601562 -17.359375 1.3125 -17.359375 L 0.984375 -17.359375 L 0.984375 -18.4375 L 8.5 -18.4375 L 8.5 -17.359375 L 8.15625 -17.359375 C 7.875 -17.359375 7.601562 -17.335938 7.34375 -17.296875 C 7.09375 -17.253906 6.867188 -17.171875 6.671875 -17.046875 C 6.472656 -16.921875 6.316406 -16.742188 6.203125 -16.515625 C 6.097656 -16.285156 6.046875 -15.976562 6.046875 -15.59375 L 6.046875 -1.28125 L 11.140625 -1.28125 C 11.523438 -1.28125 11.851562 -1.347656 12.125 -1.484375 C 12.394531 -1.628906 12.617188 -1.8125 12.796875 -2.03125 C 12.972656 -2.257812 13.109375 -2.507812 13.203125 -2.78125 C 13.304688 -3.0625 13.375 -3.34375 13.40625 -3.625 L 13.65625 -5.546875 L 15 -5.546875 L 14.828125 0 Z M 0.984375 0 "/></g></g></g><g fill="#000000" fill-opacity="1"><g transform="translate(80.365915, 192.02653)"><g><path d="M 17.6875 -9.25 C 17.6875 -7.820312 17.507812 -6.523438 17.15625 -5.359375 C 16.8125 -4.191406 16.289062 -3.191406 15.59375 -2.359375 C 14.90625 -1.523438 14.054688 -0.878906 13.046875 -0.421875 C 12.046875 0.0234375 10.890625 0.25 9.578125 0.25 C 8.210938 0.25 7.019531 0.0234375 6 -0.421875 C 4.988281 -0.878906 4.144531 -1.523438 3.46875 -2.359375 C 2.789062 -3.191406 2.285156 -4.191406 1.953125 -5.359375 C 1.617188 -6.535156 1.453125 -7.835938 1.453125 -9.265625 C 1.453125 -10.691406 1.617188 -11.988281 1.953125 -13.15625 C 2.285156 -14.320312 2.789062 -15.316406 3.46875 -16.140625 C 4.144531 -16.960938 4.992188 -17.597656 6.015625 -18.046875 C 7.035156 -18.503906 8.234375 -18.734375 9.609375 -18.734375 C 10.910156 -18.734375 12.0625 -18.503906 13.0625 -18.046875 C 14.0625 -17.597656 14.90625 -16.957031 15.59375 -16.125 C 16.289062 -15.300781 16.8125 -14.304688 17.15625 -13.140625 C 17.507812 -11.984375 17.6875 -10.6875 17.6875 -9.25 Z M 4.3125 -9.25 C 4.3125 -7.96875 4.40625 -6.820312 4.59375 -5.8125 C 4.78125 -4.8125 5.082031 -3.960938 5.5 -3.265625 C 5.925781 -2.578125 6.472656 -2.050781 7.140625 -1.6875 C 7.804688 -1.320312 8.617188 -1.140625 9.578125 -1.140625 C 10.535156 -1.140625 11.347656 -1.320312 12.015625 -1.6875 C 12.691406 -2.050781 13.238281 -2.578125 13.65625 -3.265625 C 14.070312 -3.960938 14.367188 -4.8125 14.546875 -5.8125 C 14.734375 -6.820312 14.828125 -7.96875 14.828125 -9.25 C 14.828125 -10.519531 14.734375 -11.65625 14.546875 -12.65625 C 14.367188 -13.664062 14.070312 -14.515625 13.65625 -15.203125 C 13.238281 -15.898438 12.695312 -16.425781 12.03125 -16.78125 C 11.375 -17.144531 10.566406 -17.328125 9.609375 -17.328125 C 8.648438 -17.328125 7.832031 -17.144531 7.15625 -16.78125 C 6.488281 -16.425781 5.941406 -15.898438 5.515625 -15.203125 C 5.085938 -14.515625 4.78125 -13.664062 4.59375 -12.65625 C 4.40625 -11.65625 4.3125 -10.519531 4.3125 -9.25 Z M 4.3125 -9.25 "/></g></g></g><g fill="#000000" fill-opacity="1"><g transform="translate(102.506562, 192.02653)"><g><path d="M 6.375 0.25 C 5.539062 0.25 4.800781 0.160156 4.15625 -0.015625 C 3.507812 -0.191406 2.96875 -0.4375 2.53125 -0.75 C 2.101562 -1.0625 1.78125 -1.441406 1.5625 -1.890625 C 1.34375 -2.347656 1.234375 -2.84375 1.234375 -3.375 C 1.234375 -3.894531 1.394531 -4.316406 1.71875 -4.640625 C 2.039062 -4.960938 2.503906 -5.125 3.109375 -5.125 C 3.128906 -4.582031 3.207031 -4.0625 3.34375 -3.5625 C 3.488281 -3.070312 3.695312 -2.632812 3.96875 -2.25 C 4.25 -1.875 4.601562 -1.570312 5.03125 -1.34375 C 5.457031 -1.125 5.972656 -1.015625 6.578125 -1.015625 C 7.742188 -1.015625 8.648438 -1.289062 9.296875 -1.84375 C 9.953125 -2.40625 10.28125 -3.210938 10.28125 -4.265625 C 10.28125 -4.734375 10.210938 -5.144531 10.078125 -5.5 C 9.941406 -5.863281 9.71875 -6.195312 9.40625 -6.5 C 9.09375 -6.8125 8.679688 -7.109375 8.171875 -7.390625 C 7.671875 -7.671875 7.039062 -7.96875 6.28125 -8.28125 C 5.476562 -8.613281 4.78125 -8.96875 4.1875 -9.34375 C 3.59375 -9.71875 3.097656 -10.132812 2.703125 -10.59375 C 2.304688 -11.050781 2.007812 -11.5625 1.8125 -12.125 C 1.625 -12.6875 1.53125 -13.320312 1.53125 -14.03125 C 1.53125 -14.769531 1.671875 -15.425781 1.953125 -16 C 2.234375 -16.582031 2.625 -17.070312 3.125 -17.46875 C 3.632812 -17.875 4.234375 -18.179688 4.921875 -18.390625 C 5.609375 -18.597656 6.359375 -18.703125 7.171875 -18.703125 C 7.953125 -18.703125 8.640625 -18.617188 9.234375 -18.453125 C 9.828125 -18.296875 10.328125 -18.082031 10.734375 -17.8125 C 11.148438 -17.550781 11.460938 -17.242188 11.671875 -16.890625 C 11.890625 -16.546875 12 -16.179688 12 -15.796875 C 12 -15.242188 11.816406 -14.828125 11.453125 -14.546875 C 11.085938 -14.265625 10.59375 -14.125 9.96875 -14.125 C 9.96875 -14.53125 9.921875 -14.925781 9.828125 -15.3125 C 9.734375 -15.707031 9.570312 -16.054688 9.34375 -16.359375 C 9.113281 -16.671875 8.8125 -16.921875 8.4375 -17.109375 C 8.070312 -17.304688 7.617188 -17.40625 7.078125 -17.40625 C 6.578125 -17.40625 6.128906 -17.332031 5.734375 -17.1875 C 5.347656 -17.050781 5.019531 -16.851562 4.75 -16.59375 C 4.476562 -16.34375 4.269531 -16.035156 4.125 -15.671875 C 3.988281 -15.316406 3.921875 -14.914062 3.921875 -14.46875 C 3.921875 -13.957031 3.988281 -13.503906 4.125 -13.109375 C 4.257812 -12.710938 4.484375 -12.359375 4.796875 -12.046875 C 5.109375 -11.734375 5.519531 -11.4375 6.03125 -11.15625 C 6.550781 -10.875 7.1875 -10.582031 7.9375 -10.28125 C 8.6875 -9.96875 9.359375 -9.640625 9.953125 -9.296875 C 10.546875 -8.953125 11.046875 -8.566406 11.453125 -8.140625 C 11.867188 -7.710938 12.1875 -7.234375 12.40625 -6.703125 C 12.625 -6.179688 12.734375 -5.59375 12.734375 -4.9375 C 12.734375 -4.113281 12.582031 -3.378906 12.28125 -2.734375 C 11.988281 -2.097656 11.5625 -1.554688 11 -1.109375 C 10.445312 -0.660156 9.78125 -0.320312 9 -0.09375 C 8.21875 0.132812 7.34375 0.25 6.375 0.25 Z M 6.375 0.25 "/></g></g></g><g fill="#000000" fill-opacity="1"><g transform="translate(119.544504, 192.02653)"><g/></g></g><g fill="#000000" fill-opacity="1"><g transform="translate(129.224884, 192.02653)"><g/></g></g><g fill="#000000" fill-opacity="1"><g transform="translate(138.920661, 192.02653)"><g><path d="M 9.765625 -18.703125 C 10.640625 -18.703125 11.40625 -18.628906 12.0625 -18.484375 C 12.71875 -18.335938 13.257812 -18.132812 13.6875 -17.875 C 14.125 -17.613281 14.445312 -17.304688 14.65625 -16.953125 C 14.875 -16.597656 14.984375 -16.210938 14.984375 -15.796875 C 14.984375 -15.523438 14.925781 -15.273438 14.8125 -15.046875 C 14.695312 -14.828125 14.535156 -14.640625 14.328125 -14.484375 C 14.128906 -14.328125 13.894531 -14.207031 13.625 -14.125 C 13.351562 -14.039062 13.054688 -14 12.734375 -14 C 12.734375 -14.40625 12.679688 -14.804688 12.578125 -15.203125 C 12.472656 -15.597656 12.300781 -15.953125 12.0625 -16.265625 C 11.820312 -16.578125 11.507812 -16.832031 11.125 -17.03125 C 10.75 -17.226562 10.273438 -17.328125 9.703125 -17.328125 C 8.734375 -17.328125 7.90625 -17.144531 7.21875 -16.78125 C 6.539062 -16.425781 5.988281 -15.90625 5.5625 -15.21875 C 5.132812 -14.539062 4.820312 -13.695312 4.625 -12.6875 C 4.4375 -11.6875 4.34375 -10.539062 4.34375 -9.25 C 4.34375 -8.09375 4.441406 -7.035156 4.640625 -6.078125 C 4.835938 -5.117188 5.15625 -4.296875 5.59375 -3.609375 C 6.03125 -2.921875 6.585938 -2.390625 7.265625 -2.015625 C 7.941406 -1.640625 8.753906 -1.453125 9.703125 -1.453125 C 10.335938 -1.453125 10.894531 -1.507812 11.375 -1.625 C 11.863281 -1.75 12.289062 -1.910156 12.65625 -2.109375 C 13.03125 -2.316406 13.359375 -2.550781 13.640625 -2.8125 C 13.921875 -3.082031 14.171875 -3.359375 14.390625 -3.640625 C 14.535156 -3.546875 14.648438 -3.421875 14.734375 -3.265625 C 14.828125 -3.109375 14.875 -2.898438 14.875 -2.640625 C 14.875 -2.304688 14.765625 -1.96875 14.546875 -1.625 C 14.328125 -1.289062 13.988281 -0.984375 13.53125 -0.703125 C 13.070312 -0.429688 12.492188 -0.203125 11.796875 -0.015625 C 11.097656 0.160156 10.269531 0.25 9.3125 0.25 C 8.03125 0.25 6.898438 0.0234375 5.921875 -0.421875 C 4.953125 -0.878906 4.132812 -1.523438 3.46875 -2.359375 C 2.8125 -3.191406 2.3125 -4.191406 1.96875 -5.359375 C 1.632812 -6.523438 1.46875 -7.820312 1.46875 -9.25 C 1.46875 -10.644531 1.644531 -11.921875 2 -13.078125 C 2.351562 -14.234375 2.875 -15.226562 3.5625 -16.0625 C 4.257812 -16.894531 5.125 -17.539062 6.15625 -18 C 7.195312 -18.46875 8.398438 -18.703125 9.765625 -18.703125 Z M 9.765625 -18.703125 "/></g></g></g><g fill="#000000" fill-opacity="1"><g transform="translate(157.744465, 192.02653)"><g><path d="M 11.984375 0 L 11.984375 -1.078125 L 12.328125 -1.078125 C 12.617188 -1.078125 12.890625 -1.097656 13.140625 -1.140625 C 13.398438 -1.179688 13.625 -1.269531 13.8125 -1.40625 C 14 -1.539062 14.148438 -1.726562 14.265625 -1.96875 C 14.378906 -2.207031 14.4375 -2.53125 14.4375 -2.9375 L 14.4375 -8.984375 L 6.046875 -8.984375 L 6.046875 -2.9375 C 6.046875 -2.53125 6.097656 -2.207031 6.203125 -1.96875 C 6.316406 -1.726562 6.46875 -1.539062 6.65625 -1.40625 C 6.851562 -1.269531 7.082031 -1.179688 7.34375 -1.140625 C 7.601562 -1.097656 7.875 -1.078125 8.15625 -1.078125 L 8.5 -1.078125 L 8.5 0 L 0.984375 0 L 0.984375 -1.078125 L 1.3125 -1.078125 C 1.601562 -1.078125 1.875 -1.097656 2.125 -1.140625 C 2.382812 -1.179688 2.613281 -1.269531 2.8125 -1.40625 C 3.007812 -1.539062 3.160156 -1.726562 3.265625 -1.96875 C 3.378906 -2.207031 3.4375 -2.53125 3.4375 -2.9375 L 3.4375 -15.59375 C 3.4375 -15.976562 3.378906 -16.285156 3.265625 -16.515625 C 3.148438 -16.742188 2.992188 -16.921875 2.796875 -17.046875 C 2.609375 -17.171875 2.382812 -17.253906 2.125 -17.296875 C 1.863281 -17.335938 1.59375 -17.359375 1.3125 -17.359375 L 0.984375 -17.359375 L 0.984375 -18.4375 L 8.5 -18.4375 L 8.5 -17.359375 L 8.15625 -17.359375 C 7.875 -17.359375 7.601562 -17.335938 7.34375 -17.296875 C 7.082031 -17.253906 6.851562 -17.164062 6.65625 -17.03125 C 6.46875 -16.90625 6.316406 -16.71875 6.203125 -16.46875 C 6.097656 -16.226562 6.046875 -15.90625 6.046875 -15.5 L 6.046875 -10.28125 L 14.4375 -10.28125 L 14.4375 -15.5 C 14.4375 -15.90625 14.378906 -16.226562 14.265625 -16.46875 C 14.148438 -16.71875 14 -16.90625 13.8125 -17.03125 C 13.625 -17.164062 13.398438 -17.253906 13.140625 -17.296875 C 12.890625 -17.335938 12.617188 -17.359375 12.328125 -17.359375 L 11.984375 -17.359375 L 11.984375 -18.4375 L 19.5 -18.4375 L 19.5 -17.359375 L 19.171875 -17.359375 C 18.878906 -17.359375 18.601562 -17.335938 18.34375 -17.296875 C 18.082031 -17.253906 17.851562 -17.164062 17.65625 -17.03125 C 17.46875 -16.90625 17.316406 -16.71875 17.203125 -16.46875 C 17.097656 -16.226562 17.046875 -15.90625 17.046875 -15.5 L 17.046875 -2.8125 C 17.046875 -2.4375 17.101562 -2.128906 17.21875 -1.890625 C 17.332031 -1.660156 17.484375 -1.488281 17.671875 -1.375 C 17.867188 -1.257812 18.09375 -1.179688 18.34375 -1.140625 C 18.601562 -1.097656 18.878906 -1.078125 19.171875 -1.078125 L 19.5 -1.078125 L 19.5 0 Z M 11.984375 0 "/></g></g></g><g fill="#000000" fill-opacity="1"><g transform="translate(181.196719, 192.02653)"><g><path d="M 17.6875 -9.25 C 17.6875 -7.820312 17.507812 -6.523438 17.15625 -5.359375 C 16.8125 -4.191406 16.289062 -3.191406 15.59375 -2.359375 C 14.90625 -1.523438 14.054688 -0.878906 13.046875 -0.421875 C 12.046875 0.0234375 10.890625 0.25 9.578125 0.25 C 8.210938 0.25 7.019531 0.0234375 6 -0.421875 C 4.988281 -0.878906 4.144531 -1.523438 3.46875 -2.359375 C 2.789062 -3.191406 2.285156 -4.191406 1.953125 -5.359375 C 1.617188 -6.535156 1.453125 -7.835938 1.453125 -9.265625 C 1.453125 -10.691406 1.617188 -11.988281 1.953125 -13.15625 C 2.285156 -14.320312 2.789062 -15.316406 3.46875 -16.140625 C 4.144531 -16.960938 4.992188 -17.597656 6.015625 -18.046875 C 7.035156 -18.503906 8.234375 -18.734375 9.609375 -18.734375 C 10.910156 -18.734375 12.0625 -18.503906 13.0625 -18.046875 C 14.0625 -17.597656 14.90625 -16.957031 15.59375 -16.125 C 16.289062 -15.300781 16.8125 -14.304688 17.15625 -13.140625 C 17.507812 -11.984375 17.6875 -10.6875 17.6875 -9.25 Z M 4.3125 -9.25 C 4.3125 -7.96875 4.40625 -6.820312 4.59375 -5.8125 C 4.78125 -4.8125 5.082031 -3.960938 5.5 -3.265625 C 5.925781 -2.578125 6.472656 -2.050781 7.140625 -1.6875 C 7.804688 -1.320312 8.617188 -1.140625 9.578125 -1.140625 C 10.535156 -1.140625 11.347656 -1.320312 12.015625 -1.6875 C 12.691406 -2.050781 13.238281 -2.578125 13.65625 -3.265625 C 14.070312 -3.960938 14.367188 -4.8125 14.546875 -5.8125 C 14.734375 -6.820312 14.828125 -7.96875 14.828125 -9.25 C 14.828125 -10.519531 14.734375 -11.65625 14.546875 -12.65625 C 14.367188 -13.664062 14.070312 -14.515625 13.65625 -15.203125 C 13.238281 -15.898438 12.695312 -16.425781 12.03125 -16.78125 C 11.375 -17.144531 10.566406 -17.328125 9.609375 -17.328125 C 8.648438 -17.328125 7.832031 -17.144531 7.15625 -16.78125 C 6.488281 -16.425781 5.941406 -15.898438 5.515625 -15.203125 C 5.085938 -14.515625 4.78125 -13.664062 4.59375 -12.65625 C 4.40625 -11.65625 4.3125 -10.519531 4.3125 -9.25 Z M 4.3125 -9.25 "/></g></g></g><g fill="#000000" fill-opacity="1"><g transform="translate(203.337363, 192.02653)"><g><path d="M 14.3125 -3.15625 C 14.75 -2.46875 15.171875 -1.945312 15.578125 -1.59375 C 15.992188 -1.25 16.476562 -1.078125 17.03125 -1.078125 L 17.09375 -1.078125 L 17.09375 0 L 16.734375 0 C 15.929688 0 15.269531 -0.0234375 14.75 -0.078125 C 14.226562 -0.140625 13.785156 -0.253906 13.421875 -0.421875 C 13.066406 -0.597656 12.757812 -0.835938 12.5 -1.140625 C 12.25 -1.441406 11.972656 -1.835938 11.671875 -2.328125 L 8.1875 -8.140625 L 6.046875 -8.140625 L 6.046875 -2.8125 C 6.046875 -2.4375 6.097656 -2.128906 6.203125 -1.890625 C 6.316406 -1.660156 6.472656 -1.488281 6.671875 -1.375 C 6.867188 -1.257812 7.09375 -1.179688 7.34375 -1.140625 C 7.601562 -1.097656 7.875 -1.078125 8.15625 -1.078125 L 8.5 -1.078125 L 8.5 0 L 0.984375 0 L 0.984375 -1.078125 L 1.3125 -1.078125 C 1.59375 -1.078125 1.863281 -1.097656 2.125 -1.140625 C 2.382812 -1.179688 2.609375 -1.257812 2.796875 -1.375 C 2.992188 -1.488281 3.148438 -1.660156 3.265625 -1.890625 C 3.378906 -2.128906 3.4375 -2.4375 3.4375 -2.8125 L 3.4375 -15.59375 C 3.4375 -15.976562 3.378906 -16.285156 3.265625 -16.515625 C 3.148438 -16.742188 2.992188 -16.921875 2.796875 -17.046875 C 2.609375 -17.171875 2.382812 -17.253906 2.125 -17.296875 C 1.863281 -17.335938 1.59375 -17.359375 1.3125 -17.359375 L 0.984375 -17.359375 L 0.984375 -18.4375 L 7.9375 -18.4375 C 10.164062 -18.4375 11.828125 -18.019531 12.921875 -17.1875 C 14.015625 -16.363281 14.5625 -15.117188 14.5625 -13.453125 C 14.5625 -12.765625 14.445312 -12.160156 14.21875 -11.640625 C 14 -11.128906 13.707031 -10.679688 13.34375 -10.296875 C 12.988281 -9.921875 12.582031 -9.609375 12.125 -9.359375 C 11.675781 -9.109375 11.222656 -8.90625 10.765625 -8.75 Z M 6.046875 -9.34375 L 7.859375 -9.34375 C 8.609375 -9.34375 9.234375 -9.425781 9.734375 -9.59375 C 10.242188 -9.757812 10.648438 -10.007812 10.953125 -10.34375 C 11.253906 -10.6875 11.46875 -11.109375 11.59375 -11.609375 C 11.726562 -12.117188 11.796875 -12.707031 11.796875 -13.375 C 11.796875 -14.070312 11.722656 -14.660156 11.578125 -15.140625 C 11.441406 -15.617188 11.210938 -16.007812 10.890625 -16.3125 C 10.578125 -16.625 10.164062 -16.847656 9.65625 -16.984375 C 9.144531 -17.128906 8.523438 -17.203125 7.796875 -17.203125 L 6.046875 -17.203125 Z M 6.046875 -9.34375 "/></g></g></g><g fill="#000000" fill-opacity="1"><g transform="translate(223.245767, 192.02653)"><g><path d="M 14.3125 -3.15625 C 14.75 -2.46875 15.171875 -1.945312 15.578125 -1.59375 C 15.992188 -1.25 16.476562 -1.078125 17.03125 -1.078125 L 17.09375 -1.078125 L 17.09375 0 L 16.734375 0 C 15.929688 0 15.269531 -0.0234375 14.75 -0.078125 C 14.226562 -0.140625 13.785156 -0.253906 13.421875 -0.421875 C 13.066406 -0.597656 12.757812 -0.835938 12.5 -1.140625 C 12.25 -1.441406 11.972656 -1.835938 11.671875 -2.328125 L 8.1875 -8.140625 L 6.046875 -8.140625 L 6.046875 -2.8125 C 6.046875 -2.4375 6.097656 -2.128906 6.203125 -1.890625 C 6.316406 -1.660156 6.472656 -1.488281 6.671875 -1.375 C 6.867188 -1.257812 7.09375 -1.179688 7.34375 -1.140625 C 7.601562 -1.097656 7.875 -1.078125 8.15625 -1.078125 L 8.5 -1.078125 L 8.5 0 L 0.984375 0 L 0.984375 -1.078125 L 1.3125 -1.078125 C 1.59375 -1.078125 1.863281 -1.097656 2.125 -1.140625 C 2.382812 -1.179688 2.609375 -1.257812 2.796875 -1.375 C 2.992188 -1.488281 3.148438 -1.660156 3.265625 -1.890625 C 3.378906 -2.128906 3.4375 -2.4375 3.4375 -2.8125 L 3.4375 -15.59375 C 3.4375 -15.976562 3.378906 -16.285156 3.265625 -16.515625 C 3.148438 -16.742188 2.992188 -16.921875 2.796875 -17.046875 C 2.609375 -17.171875 2.382812 -17.253906 2.125 -17.296875 C 1.863281 -17.335938 1.59375 -17.359375 1.3125 -17.359375 L 0.984375 -17.359375 L 0.984375 -18.4375 L 7.9375 -18.4375 C 10.164062 -18.4375 11.828125 -18.019531 12.921875 -17.1875 C 14.015625 -16.363281 14.5625 -15.117188 14.5625 -13.453125 C 14.5625 -12.765625 14.445312 -12.160156 14.21875 -11.640625 C 14 -11.128906 13.707031 -10.679688 13.34375 -10.296875 C 12.988281 -9.921875 12.582031 -9.609375 12.125 -9.359375 C 11.675781 -9.109375 11.222656 -8.90625 10.765625 -8.75 Z M 6.046875 -9.34375 L 7.859375 -9.34375 C 8.609375 -9.34375 9.234375 -9.425781 9.734375 -9.59375 C 10.242188 -9.757812 10.648438 -10.007812 10.953125 -10.34375 C 11.253906 -10.6875 11.46875 -11.109375 11.59375 -11.609375 C 11.726562 -12.117188 11.796875 -12.707031 11.796875 -13.375 C 11.796875 -14.070312 11.722656 -14.660156 11.578125 -15.140625 C 11.441406 -15.617188 11.210938 -16.007812 10.890625 -16.3125 C 10.578125 -16.625 10.164062 -16.847656 9.65625 -16.984375 C 9.144531 -17.128906 8.523438 -17.203125 7.796875 -17.203125 L 6.046875 -17.203125 Z M 6.046875 -9.34375 "/></g></g></g><g fill="#000000" fill-opacity="1"><g transform="translate(243.154171, 192.02653)"><g><path d="M 0.984375 0 L 0.984375 -1.078125 L 1.3125 -1.078125 C 1.601562 -1.078125 1.875 -1.097656 2.125 -1.140625 C 2.382812 -1.179688 2.613281 -1.269531 2.8125 -1.40625 C 3.007812 -1.539062 3.160156 -1.726562 3.265625 -1.96875 C 3.378906 -2.207031 3.4375 -2.53125 3.4375 -2.9375 L 3.4375 -15.5 C 3.4375 -15.90625 3.378906 -16.226562 3.265625 -16.46875 C 3.160156 -16.71875 3.007812 -16.90625 2.8125 -17.03125 C 2.613281 -17.164062 2.382812 -17.253906 2.125 -17.296875 C 1.875 -17.335938 1.601562 -17.359375 1.3125 -17.359375 L 0.984375 -17.359375 L 0.984375 -18.4375 L 8.5 -18.4375 L 8.5 -17.359375 L 8.15625 -17.359375 C 7.875 -17.359375 7.601562 -17.335938 7.34375 -17.296875 C 7.082031 -17.253906 6.851562 -17.164062 6.65625 -17.03125 C 6.46875 -16.90625 6.316406 -16.71875 6.203125 -16.46875 C 6.097656 -16.226562 6.046875 -15.90625 6.046875 -15.5 L 6.046875 -2.9375 C 6.046875 -2.53125 6.097656 -2.207031 6.203125 -1.96875 C 6.316406 -1.726562 6.46875 -1.539062 6.65625 -1.40625 C 6.851562 -1.269531 7.082031 -1.179688 7.34375 -1.140625 C 7.601562 -1.097656 7.875 -1.078125 8.15625 -1.078125 L 8.5 -1.078125 L 8.5 0 Z M 0.984375 0 "/></g></g></g><g fill="#000000" fill-opacity="1"><g transform="translate(255.609106, 192.02653)"><g><path d="M 9.1875 -2.9375 C 9.1875 -2.53125 9.242188 -2.207031 9.359375 -1.96875 C 9.472656 -1.726562 9.625 -1.539062 9.8125 -1.40625 C 10.007812 -1.269531 10.238281 -1.179688 10.5 -1.140625 C 10.757812 -1.097656 11.03125 -1.078125 11.3125 -1.078125 L 11.90625 -1.078125 L 11.90625 0 L 3.875 0 L 3.875 -1.078125 L 4.46875 -1.078125 C 4.75 -1.078125 5.015625 -1.097656 5.265625 -1.140625 C 5.523438 -1.179688 5.753906 -1.257812 5.953125 -1.375 C 6.148438 -1.488281 6.300781 -1.660156 6.40625 -1.890625 C 6.519531 -2.128906 6.578125 -2.4375 6.578125 -2.8125 L 6.578125 -17.15625 L 4.109375 -17.15625 C 3.734375 -17.15625 3.414062 -17.097656 3.15625 -16.984375 C 2.90625 -16.867188 2.695312 -16.710938 2.53125 -16.515625 C 2.363281 -16.328125 2.238281 -16.101562 2.15625 -15.84375 C 2.082031 -15.59375 2.03125 -15.320312 2 -15.03125 L 1.859375 -13.921875 L 0.515625 -13.921875 L 0.640625 -18.4375 L 15.1875 -18.4375 L 15.3125 -13.921875 L 13.96875 -13.921875 L 13.84375 -15.03125 C 13.8125 -15.320312 13.753906 -15.59375 13.671875 -15.84375 C 13.585938 -16.101562 13.460938 -16.328125 13.296875 -16.515625 C 13.140625 -16.710938 12.929688 -16.867188 12.671875 -16.984375 C 12.410156 -17.097656 12.085938 -17.15625 11.703125 -17.15625 L 9.1875 -17.15625 Z M 9.1875 -2.9375 "/></g></g></g><g fill="#000000" fill-opacity="1"><g transform="translate(274.407689, 192.02653)"><g><path d="M 17.6875 -9.25 C 17.6875 -7.820312 17.507812 -6.523438 17.15625 -5.359375 C 16.8125 -4.191406 16.289062 -3.191406 15.59375 -2.359375 C 14.90625 -1.523438 14.054688 -0.878906 13.046875 -0.421875 C 12.046875 0.0234375 10.890625 0.25 9.578125 0.25 C 8.210938 0.25 7.019531 0.0234375 6 -0.421875 C 4.988281 -0.878906 4.144531 -1.523438 3.46875 -2.359375 C 2.789062 -3.191406 2.285156 -4.191406 1.953125 -5.359375 C 1.617188 -6.535156 1.453125 -7.835938 1.453125 -9.265625 C 1.453125 -10.691406 1.617188 -11.988281 1.953125 -13.15625 C 2.285156 -14.320312 2.789062 -15.316406 3.46875 -16.140625 C 4.144531 -16.960938 4.992188 -17.597656 6.015625 -18.046875 C 7.035156 -18.503906 8.234375 -18.734375 9.609375 -18.734375 C 10.910156 -18.734375 12.0625 -18.503906 13.0625 -18.046875 C 14.0625 -17.597656 14.90625 -16.957031 15.59375 -16.125 C 16.289062 -15.300781 16.8125 -14.304688 17.15625 -13.140625 C 17.507812 -11.984375 17.6875 -10.6875 17.6875 -9.25 Z M 4.3125 -9.25 C 4.3125 -7.96875 4.40625 -6.820312 4.59375 -5.8125 C 4.78125 -4.8125 5.082031 -3.960938 5.5 -3.265625 C 5.925781 -2.578125 6.472656 -2.050781 7.140625 -1.6875 C 7.804688 -1.320312 8.617188 -1.140625 9.578125 -1.140625 C 10.535156 -1.140625 11.347656 -1.320312 12.015625 -1.6875 C 12.691406 -2.050781 13.238281 -2.578125 13.65625 -3.265625 C 14.070312 -3.960938 14.367188 -4.8125 14.546875 -5.8125 C 14.734375 -6.820312 14.828125 -7.96875 14.828125 -9.25 C 14.828125 -10.519531 14.734375 -11.65625 14.546875 -12.65625 C 14.367188 -13.664062 14.070312 -14.515625 13.65625 -15.203125 C 13.238281 -15.898438 12.695312 -16.425781 12.03125 -16.78125 C 11.375 -17.144531 10.566406 -17.328125 9.609375 -17.328125 C 8.648438 -17.328125 7.832031 -17.144531 7.15625 -16.78125 C 6.488281 -16.425781 5.941406 -15.898438 5.515625 -15.203125 C 5.085938 -14.515625 4.78125 -13.664062 4.59375 -12.65625 C 4.40625 -11.65625 4.3125 -10.519531 4.3125 -9.25 Z M 4.3125 -9.25 "/></g></g></g><g fill="#000000" fill-opacity="1"><g transform="translate(296.548328, 192.02653)"><g><path d="M 6.375 0.25 C 5.539062 0.25 4.800781 0.160156 4.15625 -0.015625 C 3.507812 -0.191406 2.96875 -0.4375 2.53125 -0.75 C 2.101562 -1.0625 1.78125 -1.441406 1.5625 -1.890625 C 1.34375 -2.347656 1.234375 -2.84375 1.234375 -3.375 C 1.234375 -3.894531 1.394531 -4.316406 1.71875 -4.640625 C 2.039062 -4.960938 2.503906 -5.125 3.109375 -5.125 C 3.128906 -4.582031 3.207031 -4.0625 3.34375 -3.5625 C 3.488281 -3.070312 3.695312 -2.632812 3.96875 -2.25 C 4.25 -1.875 4.601562 -1.570312 5.03125 -1.34375 C 5.457031 -1.125 5.972656 -1.015625 6.578125 -1.015625 C 7.742188 -1.015625 8.648438 -1.289062 9.296875 -1.84375 C 9.953125 -2.40625 10.28125 -3.210938 10.28125 -4.265625 C 10.28125 -4.734375 10.210938 -5.144531 10.078125 -5.5 C 9.941406 -5.863281 9.71875 -6.195312 9.40625 -6.5 C 9.09375 -6.8125 8.679688 -7.109375 8.171875 -7.390625 C 7.671875 -7.671875 7.039062 -7.96875 6.28125 -8.28125 C 5.476562 -8.613281 4.78125 -8.96875 4.1875 -9.34375 C 3.59375 -9.71875 3.097656 -10.132812 2.703125 -10.59375 C 2.304688 -11.050781 2.007812 -11.5625 1.8125 -12.125 C 1.625 -12.6875 1.53125 -13.320312 1.53125 -14.03125 C 1.53125 -14.769531 1.671875 -15.425781 1.953125 -16 C 2.234375 -16.582031 2.625 -17.070312 3.125 -17.46875 C 3.632812 -17.875 4.234375 -18.179688 4.921875 -18.390625 C 5.609375 -18.597656 6.359375 -18.703125 7.171875 -18.703125 C 7.953125 -18.703125 8.640625 -18.617188 9.234375 -18.453125 C 9.828125 -18.296875 10.328125 -18.082031 10.734375 -17.8125 C 11.148438 -17.550781 11.460938 -17.242188 11.671875 -16.890625 C 11.890625 -16.546875 12 -16.179688 12 -15.796875 C 12 -15.242188 11.816406 -14.828125 11.453125 -14.546875 C 11.085938 -14.265625 10.59375 -14.125 9.96875 -14.125 C 9.96875 -14.53125 9.921875 -14.925781 9.828125 -15.3125 C 9.734375 -15.707031 9.570312 -16.054688 9.34375 -16.359375 C 9.113281 -16.671875 8.8125 -16.921875 8.4375 -17.109375 C 8.070312 -17.304688 7.617188 -17.40625 7.078125 -17.40625 C 6.578125 -17.40625 6.128906 -17.332031 5.734375 -17.1875 C 5.347656 -17.050781 5.019531 -16.851562 4.75 -16.59375 C 4.476562 -16.34375 4.269531 -16.035156 4.125 -15.671875 C 3.988281 -15.316406 3.921875 -14.914062 3.921875 -14.46875 C 3.921875 -13.957031 3.988281 -13.503906 4.125 -13.109375 C 4.257812 -12.710938 4.484375 -12.359375 4.796875 -12.046875 C 5.109375 -11.734375 5.519531 -11.4375 6.03125 -11.15625 C 6.550781 -10.875 7.1875 -10.582031 7.9375 -10.28125 C 8.6875 -9.96875 9.359375 -9.640625 9.953125 -9.296875 C 10.546875 -8.953125 11.046875 -8.566406 11.453125 -8.140625 C 11.867188 -7.710938 12.1875 -7.234375 12.40625 -6.703125 C 12.625 -6.179688 12.734375 -5.59375 12.734375 -4.9375 C 12.734375 -4.113281 12.582031 -3.378906 12.28125 -2.734375 C 11.988281 -2.097656 11.5625 -1.554688 11 -1.109375 C 10.445312 -0.660156 9.78125 -0.320312 9 -0.09375 C 8.21875 0.132812 7.34375 0.25 6.375 0.25 Z M 6.375 0.25 "/></g></g></g></svg>